<svg width="105" height="84" viewBox="0 0 105 84" fill="none" xmlns="http://www.w3.org/2000/svg">
<path d="M8.02222 2.00391H60.5164C63.7177 2.00407 66.3575 4.51285 66.5212 7.70996L69.3093 62.2295C69.485 65.6664 66.7458 68.5495 63.3044 68.5498H10.8103C7.60875 68.5498 4.969 66.0411 4.80542 62.8438L2.01733 8.32422C1.84179 4.88733 4.58082 2.00399 8.02222 2.00391Z" fill="white" stroke="#E8E8E8" stroke-width="4.00875"/>
<path d="M8.01758 13.2305H96.9824C100.423 13.2305 103.161 16.112 102.987 19.5479L100.149 75.6699C99.9876 78.8687 97.3465 81.3799 94.1436 81.3799H10.8564C7.65353 81.3799 5.01237 78.8687 4.85059 75.6699L2.0127 19.5479C1.83893 16.112 4.57739 13.2305 8.01758 13.2305Z" fill="white" stroke="#E8E8E8" stroke-width="4.00875"/>
</svg>
